<svg xmlns="http://www.w3.org/2000/svg" width="60" height="40"><g fill="none" fill-rule="evenodd"><path fill="#FFF" fill-rule="nonzero" d="M.09 15.657c-.373-1.413.456-2.869 1.843-3.246l15.154-4.128c1.39-.379 2.821.464 3.193 1.874l4.06 15.406c.373 1.413-.457 2.869-1.843 3.246L7.343 32.938c-1.39.378-2.822-.465-3.193-1.875L.09 15.657zm42.65-7.34l15.03 4.094c1.39.378 2.215 1.836 1.844 3.246l-4.06 15.406c-.373 1.413-1.807 2.252-3.194 1.875l-9.078-2.473c-.693 1.995-2.565 3.427-4.763 3.427H21.184c-2.787 0-5.05-2.302-5.05-5.134V11.134c0-2.833 2.264-5.134 5.05-5.134H38.52c1.763 0 3.317.922 4.22 2.316z"/><path fill="#3B8500" d="M16.285 10.03c-.1.396-.153.81-.153 1.238v17.334c0 .135.005.268.015.4L7.755 31.25a2.08 2.08 0 01-2.547-1.47L1.55 16.13a2.08 2.08 0 011.47-2.547l13.264-3.554zm27.128 0l13.264 3.554a2.08 2.08 0 011.47 2.547L54.492 29.78a2.08 2.08 0 01-2.548 1.471l-8.392-2.248c.01-.132.016-.265.016-.4V11.268a5.05 5.05 0 00-.154-1.238zm-25.975 1.238a3.747 3.747 0 013.744-3.744h17.335a3.747 3.747 0 013.743 3.744v17.334a3.747 3.747 0 01-3.743 3.744H21.182a3.747 3.747 0 01-3.744-3.744V11.268z"/><path fill="#FFF" d="M51.028 24.276l-.454 1.693-6.388-1.712c.24-.622.61-1.172 1.11-1.653.5-.48 1.386-1.057 2.66-1.73 1.027-.545 1.67-.93 1.929-1.152.351-.309.576-.647.675-1.015.109-.406.083-.748-.077-1.025-.16-.277-.432-.467-.817-.57-.38-.102-.714-.068-1 .1-.286.17-.518.515-.695 1.038l-1.767-.668c.377-.974.909-1.603 1.597-1.887.687-.284 1.46-.311 2.316-.082.938.252 1.607.702 2.008 1.352.4.65.5 1.35.298 2.103a3.38 3.38 0 01-.557 1.16c-.258.346-.61.687-1.056 1.021-.296.222-.802.52-1.518.893-.717.374-1.175.626-1.375.758-.2.132-.37.267-.508.406l3.619.97zm-37.34.634l-1.823.488-1.84-6.868a6.505 6.505 0 01-1.985 2.012l-.443-1.654c.434-.283.872-.716 1.313-1.3.442-.584.688-1.194.74-1.829l1.48-.396 2.558 9.547zm8.365 3.874l5.722-8.737-5.185-8.006h3.951l3.358 5.38 3.29-5.38h3.917l-5.208 8.132 5.721 8.611h-4.077l-3.711-5.79-3.724 5.79z"/></g></svg>